HIERARCHY
ROOT Hips
{
	OFFSET 0.000000 0.000000 0.000000 
	CHANNELS 6 Xposition Yposition Zposition Zrotation Yrotation Xrotation
	JOINT LeftUpLeg
	{
		OFFSET 1.363060 -1.794630 0.839290 
		CHANNELS 3 Zrotation Yrotation Xrotation
		JOINT LeftLeg
		{
			OFFSET 2.448110 -6.726130 0.000000 
			CHANNELS 3 Zrotation Yrotation Xrotation
			JOINT LeftFoot
			{
				OFFSET 2.562200 -7.039590 0.000000 
				CHANNELS 3 Zrotation Yrotation Xrotation
				JOINT LeftToeBase
				{
					OFFSET 0.157640 -0.433110 2.322550 
					CHANNELS 3 Zrotation Yrotation Xrotation
					End Site
					{
						OFFSET 0.000000 0.000000 0.000000 
					}
				}
			}
		}
	}
	JOINT RightUpLeg
	{
		OFFSET -1.305520 -1.794630 0.839290 
		CHANNELS 3 Zrotation Yrotation Xrotation
		JOINT RightLeg
		{
			OFFSET -2.542530 -6.985550 0.000000 
			CHANNELS 3 Zrotation Yrotation Xrotation
			JOINT RightFoot
			{
				OFFSET -2.568260 -7.056230 0.000000 
				CHANNELS 3 Zrotation Yrotation Xrotation
				JOINT RightToeBase
				{
					OFFSET -0.164730 -0.452590 2.363150 
					CHANNELS 3 Zrotation Yrotation Xrotation
					End Site
					{
						OFFSET 0.000000 0.000000 0.000000 
					}
				}
			}
		}
	}
	JOINT Spine
	{
		OFFSET 0.028270 2.035590 -0.193380 
		CHANNELS 3 Zrotation Yrotation Xrotation
		JOINT Spine1
		{
			OFFSET 0.056720 2.048850 -0.042750 
			CHANNELS 3 Zrotation Yrotation Xrotation
			JOINT Neck1
			{
				OFFSET -0.054170 1.746240 0.172020 
				CHANNELS 3 Zrotation Yrotation Xrotation
				JOINT Head
				{
					OFFSET 0.104070 1.761360 -0.123970 
					CHANNELS 3 Zrotation Yrotation Xrotation
					End Site
					{
						OFFSET 0.000000 0.000000 0.000000 
					}
				}
			}
			JOINT LeftArm
			{
				OFFSET 3.362410 1.200890 -0.311210 
				CHANNELS 3 Zrotation Yrotation Xrotation
				JOINT LeftForeArm
				{
					OFFSET 4.983000 -0.000000 -0.000000 
					CHANNELS 3 Zrotation Yrotation Xrotation
					JOINT LeftHand
					{
						OFFSET 3.483560 -0.000000 -0.000000 
						CHANNELS 3 Zrotation Yrotation Xrotation
						JOINT LeftHandIndex1
						{
							OFFSET 0.715260 -0.000000 -0.000000 
							CHANNELS 3 Zrotation Yrotation Xrotation
							End Site
							{
								OFFSET 0.000000 0.000000 0.000000 
							}
						}
					}
				}
			}
			JOINT RightArm
			{
				OFFSET -3.136600 1.374050 -0.404650 
				CHANNELS 3 Zrotation Yrotation Xrotation
				JOINT RightForeArm
				{
					OFFSET -5.241900 -0.000000 -0.000000 
					CHANNELS 3 Zrotation Yrotation Xrotation
					JOINT RightHand
					{
						OFFSET -3.444170 -0.000000 -0.000000 
						CHANNELS 3 Zrotation Yrotation Xrotation
						JOINT RightHandIndex1
						{
							OFFSET -0.622530 -0.000000 -0.000000 
							CHANNELS 3 Zrotation Yrotation Xrotation
							End Site
							{
								OFFSET 0.000000 0.000000 0.000000 
							}
						}
					}
				}
			}
		}
	}
}
MOTION
Frames: 13
Frame Time: 0.041667
8.003411 17.520410 27.811717 -5.115169 -81.302144 21.134904 -7.213171 -1.671839 0.963728 -4.668269 -0.871750 3.522288 -0.105449 6.762529 24.102011 0.000000 0.000000 0.000000 22.400334 25.239678 -9.413368 4.456345 -9.999951 18.823996 7.281376 -24.080485 -5.359968 -0.168600 2.645600 -7.293600 0.984057 1.012318 -5.302522 -3.103698 0.303793 5.477782 9.261769 -2.010047 14.075475 0.818300 0.362900 14.678900 -76.121025 5.673607 39.743010 13.863578 -18.417325 -3.389703 -1.901424 -2.030045 -39.809394 -7.125000 0.000000 0.000000 29.059667 9.675875 -32.461064 -130.480193 48.269304 -100.581671 -0.998826 4.203673 44.008226 7.125000 0.000000 0.000000 
8.006302 17.520743 27.812829 -5.274701 -81.269838 21.295877 -7.213313 -1.671774 0.963516 -4.668270 -0.871595 3.522221 -0.105600 6.762674 24.101953 0.000000 0.000000 0.000000 22.425456 25.308690 -9.383982 4.460154 -9.992376 18.798693 7.307853 -24.157808 -5.406833 -0.167100 2.633400 -7.259800 0.985333 1.012659 -5.296667 -3.111644 0.305808 5.486559 9.285632 -1.964626 13.998532 0.850200 0.377300 14.651800 -76.164948 5.681765 39.793895 13.943554 -18.515998 -3.427387 -1.902877 -2.041985 -39.908337 -7.125000 0.000000 0.000000 29.223037 9.855468 -33.098565 -130.860029 48.038297 -100.833964 -1.030327 4.225599 43.119056 7.125000 0.000000 0.000000 
8.009193 17.520966 27.814052 -5.304615 -81.267002 21.320353 -7.213473 -1.671707 0.963294 -4.668274 -0.871447 3.522147 -0.105689 6.762821 24.101900 0.000000 0.000000 0.000000 22.424061 25.314675 -9.382059 4.459529 -9.991733 18.793445 7.320405 -24.193931 -5.392190 -0.171000 2.664000 -7.344600 0.958043 1.074896 -5.288138 -3.231812 0.332463 5.497465 9.275863 -2.002943 13.934032 0.806900 0.377600 14.635100 -76.038629 5.689887 39.957758 14.019318 -18.615096 -3.464929 -1.897078 -2.047404 -40.016254 -7.125000 0.000000 0.000000 29.475775 10.055064 -33.887868 -131.269772 47.780905 -101.118442 -1.105343 4.241685 41.352687 7.125000 0.000000 0.000000 
8.011640 17.521188 27.814830 -5.246136 -81.259199 21.258770 -7.212780 -1.671955 0.964234 -4.668247 -0.871968 3.522435 -0.105704 6.762292 24.102102 0.000000 0.000000 0.000000 22.407853 25.283400 -9.394969 4.460091 -9.989309 18.789683 7.309612 -24.161818 -5.369391 -0.169200 2.649600 -7.304600 0.936592 1.104894 -5.287919 -3.300097 0.347435 5.470619 9.313051 -1.989120 13.890718 0.841400 0.387900 14.631200 -75.907703 5.778751 40.370714 14.135939 -18.773428 -3.523916 -1.885480 -2.079362 -40.451898 -7.125000 0.000000 0.000000 29.818418 10.490412 -34.831743 -131.631948 47.515763 -101.383322 -1.335153 4.170038 38.028590 7.125000 0.000000 0.000000 
8.014086 17.521410 27.815609 -5.269654 -81.248926 21.280802 -7.212177 -1.672163 0.965043 -4.668222 -0.872398 3.522682 -0.105794 6.761851 24.102269 0.000000 0.000000 0.000000 22.404871 25.274602 -9.404114 4.460300 -9.990012 18.787574 7.310660 -24.165453 -5.358282 -0.170000 2.656000 -7.322600 0.927402 1.112526 -5.286631 -3.327060 0.354109 5.454228 9.344773 -1.940646 13.846358 0.880100 0.408500 14.625900 -75.841344 5.858767 40.690277 14.246903 -18.923144 -3.580222 -1.874661 -2.106411 -40.815065 -7.125000 0.000000 0.000000 30.073490 10.898576 -35.733671 -131.954803 47.284735 -101.605770 -1.498803 4.108970 35.296914 7.125000 0.000000 0.000000 
8.016310 17.521633 27.816276 -5.284674 -81.239381 21.297275 -7.211335 -1.672459 0.966175 -4.668188 -0.873007 3.523028 -0.105887 6.761227 24.102505 0.000000 0.000000 0.000000 22.398756 25.262039 -9.418266 4.460462 -9.991389 18.785778 7.310869 -24.166913 -5.341849 -0.171300 2.666300 -7.351100 0.924254 1.104218 -5.287504 -3.327748 0.355144 5.429378 9.382869 -1.869823 13.809913 0.933100 0.435200 14.622700 -75.806089 5.952856 41.001811 14.353721 -19.067436 -3.634771 -1.863385 -2.134639 -41.189979 -7.125000 0.000000 0.000000 30.317893 11.376941 -36.668721 -132.251043 47.064573 -101.802688 -1.685235 4.013700 32.169285 7.125000 0.000000 0.000000 
8.018423 17.521966 27.816721 -5.292933 -81.229058 21.310906 -7.210308 -1.672822 0.967557 -4.668147 -0.873755 3.523452 -0.105986 6.760461 24.102794 0.000000 0.000000 0.000000 22.389226 25.240861 -9.438776 4.460966 -9.992440 18.781976 7.310092 -24.165689 -5.318068 -0.173200 2.681100 -7.392300 0.928333 1.079778 -5.290543 -3.300751 0.350697 5.396765 9.419931 -1.779884 13.780298 0.991200 0.467000 14.618800 -75.823696 6.045906 41.235784 14.439444 -19.181719 -3.678466 -1.854905 -2.158824 -41.500647 -7.125000 0.000000 0.000000 30.542103 11.909759 -37.616143 -132.523673 46.856924 -101.972282 -1.888768 3.876549 28.723272 7.125000 0.000000 0.000000 
8.020425 17.522411 27.817166 -5.298009 -81.218745 21.326476 -7.209173 -1.673222 0.969083 -4.668100 -0.874576 3.523920 -0.106115 6.759619 24.103113 0.000000 0.000000 0.000000 22.377697 25.227328 -9.462360 4.461619 -9.994420 18.777039 7.312097 -24.172528 -5.297799 -0.175400 2.697800 -7.438600 0.937720 1.044730 -5.295201 -3.261922 0.342042 5.359120 9.451115 -1.685641 13.756784 1.041600 0.500800 14.614800 -75.907826 6.109800 41.268685 14.474164 -19.222486 -3.694994 -1.852257 -2.168332 -41.612670 -7.125000 0.000000 0.000000 30.751098 12.475610 -38.546905 -132.784592 46.657129 -102.119667 -2.096512 3.700997 25.000308 7.125000 0.000000 0.000000 
8.022204 17.522967 27.817499 -5.288902 -81.208469 21.332832 -7.207914 -1.673664 0.970774 -4.668049 -0.875485 3.524438 -0.106265 6.758687 24.103467 0.000000 0.000000 0.000000 22.361655 25.216644 -9.490271 4.462391 -9.996735 18.770831 7.315056 -24.182137 -5.277537 -0.177600 2.714700 -7.485400 0.946245 1.015095 -5.301035 -3.227321 0.335608 5.317388 9.474875 -1.607984 13.739720 1.079900 0.529100 14.612400 -76.000039 6.161256 41.276942 14.484429 -19.229645 -3.698824 -1.852675 -2.173043 -41.661503 -7.125000 0.000000 0.000000 30.954263 13.036697 -39.444953 -133.071560 46.444267 -102.269832 -2.307033 3.476908 21.019607 7.125000 0.000000 0.000000 
8.023761 17.523635 27.817722 -5.271438 -81.200666 21.335218 -7.206651 -1.674104 0.972468 -4.667996 -0.876388 3.524955 -0.106446 6.757760 24.103820 0.000000 0.000000 0.000000 22.342831 25.220158 -9.518153 4.463475 -9.999268 18.762801 7.320427 -24.198950 -5.265917 -0.179000 2.725200 -7.514500 0.950179 1.000105 -5.306737 -3.213573 0.334765 5.277159 9.488200 -1.560562 13.726811 1.097700 0.548500 14.611300 -76.085766 6.183737 41.235650 14.461032 -19.189637 -3.685094 -1.857213 -2.169366 -41.609188 -7.125000 0.000000 0.000000 31.164186 13.575833 -40.292874 -133.396348 46.212206 -102.428486 -2.509827 3.198010 16.775426 7.125000 0.000000 0.000000 
8.025207 17.524191 27.817833 -5.268527 -81.193520 21.356069 -7.205329 -1.674557 0.974238 -4.667940 -0.877324 3.525493 -0.106672 6.756799 24.104188 0.000000 0.000000 0.000000 22.324232 25.232115 -9.548076 4.465000 -10.002351 18.753465 7.326818 -24.219241 -5.258742 -0.179900 2.732000 -7.533600 0.952296 0.993076 -5.312714 -3.200651 0.337116 5.238984 9.496916 -1.524940 13.723112 1.111300 0.563300 14.617700 -76.146458 6.204301 41.284738 14.436447 -19.150054 -3.671441 -1.860950 -2.168449 -41.604050 -7.125000 0.000000 0.000000 31.359194 14.086553 -41.069596 -133.772936 45.952013 -102.603574 -2.691422 2.865302 12.216471 7.125000 0.000000 0.000000 
8.026430 17.524858 27.817833 -5.276942 -81.189666 21.391940 -7.203999 -1.675005 0.976015 -4.667883 -0.878255 3.526031 -0.106941 6.755842 24.104556 0.000000 0.000000 0.000000 22.304359 25.254657 -9.579419 4.467145 -10.005820 18.742892 7.331860 -24.236347 -5.259028 -0.179600 2.729900 -7.527600 0.950722 1.000131 -5.318728 -3.199599 0.344562 5.204125 9.503163 -1.510188 13.727935 1.119900 0.570500 14.631900 -76.194420 6.201135 41.330895 14.387140 -19.076248 -3.645112 -1.866831 -2.162983 -41.546145 -7.125000 0.000000 0.000000 31.543543 14.554635 -41.789386 -134.222077 45.649176 -102.809608 -2.835774 2.483946 7.274203 7.125000 0.000000 0.000000 
8.027431 17.525525 27.817833 -5.291459 -81.187129 21.438907 -7.202609 -1.675471 0.977870 -4.667822 -0.879225 3.526593 -0.107237 6.754846 24.104939 0.000000 0.000000 0.000000 22.282094 25.275332 -9.616408 4.469714 -10.009622 18.731650 7.334080 -24.246135 -5.258570 -0.178500 2.721400 -7.504000 0.948866 1.010760 -5.324892 -3.191892 0.353749 5.172638 9.501435 -1.497443 13.740355 1.123100 0.576400 14.651400 -76.209315 6.209657 41.530392 14.351986 -19.026044 -3.627416 -1.869757 -2.165965 -41.609966 -7.125000 0.000000 0.000000 31.694227 14.987181 -42.464605 -134.737309 45.304956 -103.044800 -2.925939 2.062584 1.904282 7.125000 0.000000 0.000000 
